<svg width="500" height="108" viewBox="0 0 500 108" fill="none" xmlns="http://www.w3.org/2000/svg">
<path d="M484.932 39.3066C483.154 38.8965 481.367 38.7598 479.59 39.0332C478.633 39.1699 477.812 39.3066 476.982 39.5801C476.299 39.8535 475.752 40.1269 475.205 40.5371C474.385 41.2207 473.838 42.041 473.701 42.998C473.564 43.8184 473.838 44.6387 474.385 45.3223C475.068 46.1426 476.025 46.6894 476.846 47.0996C477.666 47.5098 478.623 47.7832 479.453 47.9199C480.547 48.1934 481.504 48.4668 482.607 48.6035C485.068 49.1504 487.402 49.6973 489.727 50.6543C493.838 52.2949 497.676 54.9023 499.316 59.4238C500 61.3379 500.137 63.3984 499.863 65.4492C499.59 67.9101 498.496 70.2441 497.119 72.1582C496.025 73.6621 494.512 74.9023 492.871 75.8594C490.684 77.2266 488.213 78.0469 485.615 78.4668C483.701 78.877 481.641 78.8769 479.727 78.8769C477.266 78.7402 474.795 78.4668 472.471 77.7832C468.086 76.5527 464.248 74.4922 460.693 71.6211C462.607 69.0137 464.531 66.416 466.445 63.8086C468.633 65.4492 470.83 66.8262 473.428 67.7832C475.068 68.4668 476.855 68.8769 478.633 69.0137C480.273 69.1504 481.924 69.2871 483.428 69.0137C484.521 68.8769 485.752 68.6035 486.719 68.0566C487.539 67.6465 488.223 67.0996 488.77 66.416C489.18 65.8692 489.59 65.0488 489.59 64.3652C489.727 63.5449 489.453 62.7246 489.043 62.041C488.496 61.2207 487.812 60.5371 486.992 60.127C485.898 59.4434 484.805 59.0332 483.564 58.7597C482.197 58.3496 480.684 58.0762 479.316 57.8027C475.205 56.9824 470.547 55.8887 467.129 52.8711C465.488 51.5039 464.248 49.7168 463.701 47.666C463.018 45.4785 463.018 43.0078 463.564 40.8203C464.111 39.043 464.932 37.2559 466.172 35.8887C467.812 33.8379 470.01 32.4609 472.334 31.3672C474.111 30.5469 476.035 30.1367 477.949 29.8633C480.41 29.5898 483.018 29.5898 485.488 30C489.873 30.6836 494.121 32.3242 497.676 34.9316C495.898 37.3926 493.975 39.8633 492.197 42.4707C490 40.8105 487.539 39.8535 484.932 39.3066ZM395.342 6.8457H384.385V77.3926H395.342V6.8457ZM451.65 77.5293C451.65 62.3242 451.65 46.9824 451.65 31.7773C447.949 31.7773 444.395 31.7773 440.693 31.7773C440.693 34.6582 440.693 50.4102 440.693 53.418C440.693 54.6484 440.693 55.8789 440.557 57.2559C440.557 58.0762 440.42 58.8965 440.283 59.7168C440.01 61.2207 439.463 62.7344 438.643 63.9648C436.592 67.1191 433.027 68.6231 429.463 68.7598C425.762 68.7598 422.344 67.2559 420.283 63.9648C419.463 62.5977 419.053 61.2207 418.779 59.7168C418.369 57.666 418.232 55.6055 418.232 53.5547C418.232 52.1875 418.232 50.9473 418.232 49.5801C418.232 47.2558 418.232 45.0586 418.232 42.7344C418.232 39.1699 418.232 35.4785 418.232 31.9141C414.531 31.9141 410.977 31.9141 407.275 31.9141C407.275 35.6152 407.275 46.709 407.275 50.4102C407.275 52.1875 407.275 53.9746 407.412 55.7519C407.412 57.1191 407.549 58.3594 407.686 59.7266C407.959 62.8809 408.506 65.752 409.873 68.6328C412.754 74.3848 418.369 77.8125 424.668 78.4961C427.686 78.9063 430.83 78.6328 433.848 77.6758C436.729 76.8555 439.736 75.3516 441.797 73.1543C441.934 74.6582 441.934 76.0352 442.07 77.5391C445.342 77.5293 448.496 77.5293 451.65 77.5293ZM320.547 71.6406C318.086 69.0332 315.615 66.4355 313.008 63.9648C311.094 65.7422 308.76 66.9824 306.162 67.5293C303.564 68.0762 300.957 68.0762 298.35 67.2559C295.889 66.4355 293.691 64.9316 292.188 62.7344C290.684 60.5469 289.863 57.9394 289.727 55.3418C289.59 52.7441 290.137 50 291.23 47.8027C292.461 45.3418 294.385 43.6914 296.846 42.5977C297.939 42.1875 299.033 41.7773 300.137 41.6406C301.641 41.3672 303.018 41.3672 304.521 41.5039C307.129 41.7773 309.59 42.7344 311.777 44.248C313.965 41.5039 316.162 38.6328 318.35 35.8887C314.512 32.8711 310.264 31.2305 305.469 30.6836C300.811 30.1367 296.016 30.957 291.768 32.8711C287.383 34.9219 283.955 38.2129 281.768 42.4609C279.58 46.5723 278.613 51.3672 278.887 56.0254C279.16 60.6836 280.527 65.3418 283.271 69.1797C286.016 73.1543 289.844 75.8887 294.365 77.4024C298.75 78.9063 303.682 79.1797 308.34 78.2227C313.018 77.2559 317.266 75.0586 320.547 71.6406ZM371.504 77.5293C371.504 62.3242 371.504 46.9824 371.504 31.7773C367.803 31.7773 364.248 31.7773 360.547 31.7773C360.547 34.6582 360.547 50.4102 360.547 53.418C360.547 54.6484 360.547 55.8789 360.41 57.2559C360.41 58.0762 360.273 58.8965 360.137 59.7168C359.863 61.2207 359.316 62.7344 358.496 63.9648C356.445 67.1191 352.881 68.6231 349.316 68.7598C345.615 68.7598 342.197 67.2559 340.137 63.9648C339.316 62.5977 338.906 61.2207 338.633 59.7168C338.223 57.666 338.086 55.6055 338.086 53.5547C338.086 52.1875 338.086 50.9473 338.086 49.5801C338.086 47.2558 338.086 45.0586 338.086 42.7344C338.086 39.1699 338.086 35.4785 338.086 31.9141C334.385 31.9141 330.83 31.9141 327.129 31.9141C327.129 35.6152 327.129 46.709 327.129 50.4102C327.129 52.1875 327.129 53.9746 327.266 55.7519C327.266 57.1191 327.402 58.3594 327.539 59.7266C327.812 62.8809 328.359 65.752 329.727 68.6328C332.607 74.3848 338.223 77.8125 344.521 78.4961C347.539 78.9063 350.684 78.6328 353.701 77.6758C356.582 76.8555 359.59 75.3516 361.65 73.1543C361.787 74.6582 361.787 76.0352 361.924 77.5391C365.205 77.5293 368.359 77.5293 371.504 77.5293ZM270.82 54.6484C270.82 60.9473 268.496 67.1191 263.975 71.6309C259.453 76.1523 253.291 78.4765 246.992 78.4765C240.693 78.4765 234.521 76.0156 230.01 71.4941C225.488 66.9726 223.301 60.6738 223.301 54.375C223.301 48.0762 225.625 41.9043 230.146 37.3926C234.668 32.8711 240.83 30.5469 247.129 30.5469C253.428 30.5469 259.6 33.0078 264.111 37.5293C268.633 42.1875 270.82 48.3496 270.82 54.6484ZM260.137 54.6484C260.137 53.6914 260 52.7344 259.863 51.9043C259.727 51.084 259.453 50.1269 259.18 49.2969C258.906 48.4766 258.496 47.793 258.086 46.9726C257.676 46.2891 257.129 45.6055 256.582 45.0586C256.035 44.5117 255.352 43.9648 254.668 43.5547C253.984 43.1445 253.164 42.7344 252.48 42.3242C251.66 42.0508 250.84 41.7773 250.02 41.6406C249.199 41.5039 248.242 41.3672 247.275 41.3672C246.318 41.3672 245.498 41.5039 244.531 41.6406C243.711 41.7773 242.891 42.0508 242.07 42.3242C241.25 42.5977 240.566 43.0078 239.883 43.5547C239.199 43.9648 238.516 44.5117 237.969 45.0586C237.422 45.6055 236.875 46.2891 236.465 46.9726C236.055 47.6562 235.645 48.4766 235.234 49.2969C234.961 50.1172 234.687 50.9375 234.551 51.9043C234.414 52.8613 234.277 53.6816 234.277 54.6484C234.277 55.6055 234.414 56.5625 234.551 57.3926C234.687 58.2129 234.961 59.1699 235.234 60C235.508 60.8203 235.918 61.5039 236.328 62.3242C236.738 63.0078 237.285 63.6914 237.832 64.2383C238.379 64.7852 239.063 65.332 239.746 65.7422C240.43 66.1524 241.25 66.5625 241.934 66.9726C242.754 67.2461 243.574 67.5195 244.395 67.6562C245.215 67.793 246.172 67.9297 247.139 67.9297C248.096 67.9297 248.916 67.793 249.883 67.6562C250.703 67.5195 251.523 67.2461 252.344 66.9726C253.164 66.6992 253.848 66.2891 254.531 65.7422C255.215 65.332 255.898 64.7852 256.445 64.2383C256.992 63.6914 257.539 63.0078 257.949 62.3242C258.359 61.6406 258.77 60.8203 259.18 60C259.453 59.1797 259.727 58.3594 259.863 57.3926C260 56.5723 260.137 55.6055 260.137 54.6484ZM178.223 53.8281C178.223 69.9902 170.83 85.332 158.223 95.4688C151.924 100.537 144.795 103.965 136.992 105.879C132.471 106.973 128.086 107.383 123.428 107.52C120 107.656 116.582 107.656 113.291 107.656C97.1289 107.656 81.1035 107.656 64.9316 107.656C61.5039 107.656 58.0859 107.656 54.7949 107.52C50.2734 107.383 45.752 106.836 41.2305 105.879C33.418 103.965 26.2988 100.537 20 95.4688C7.39258 85.332 0 69.9902 0 53.8281C0 37.666 7.39258 22.3242 20 12.1875C26.2988 7.11914 33.4277 3.6914 41.2305 1.77734C45.752 0.683586 50.1367 0.273437 54.7949 0.136718C58.2227 -5.96629e-07 61.6406 0 64.9316 0C81.0937 0 97.1191 0 113.291 0C116.719 0 120.137 -5.96629e-07 123.428 0.136718C127.949 0.273437 132.471 0.820305 136.992 1.77734C144.805 3.6914 151.924 7.11914 158.223 12.1875C170.957 22.3242 178.223 37.666 178.223 53.8281ZM142.324 53.8281C142.324 48.0762 139.443 42.5977 134.648 39.3066C132.324 37.666 129.58 36.6992 126.836 36.1523C123.955 35.7422 121.221 35.7422 118.34 35.7422C98.8867 35.7422 79.2969 35.7422 59.8437 35.7422C56.9629 35.7422 54.2285 35.6055 51.3477 36.1523C48.4668 36.5625 45.8691 37.6562 43.5352 39.3066C38.7402 42.5977 35.8594 47.9394 35.8594 53.8281C35.8594 59.5801 38.7402 65.0586 43.5352 68.3496C45.8594 69.9902 48.6035 70.957 51.3477 71.5039C54.2285 71.9141 56.9629 71.914 59.8437 71.914C79.2969 71.914 98.8867 71.914 118.34 71.914C121.221 71.914 123.955 72.0508 126.836 71.5039C129.717 71.0938 132.314 70 134.648 68.3496C139.453 65.0586 142.324 59.5801 142.324 53.8281Z" fill="white"/>
</svg>
