<svg width="500" height="121" viewBox="0 0 500 121" fill="none" xmlns="http://www.w3.org/2000/svg">
<g clip-path="url(#clip0_140_9)">
<mask id="mask0_140_9" style="mask-type:alpha" maskUnits="userSpaceOnUse" x="0" y="0" width="500" height="121">
<path d="M500 25.3302H497.637V19.4231L495.274 23.3218H494.093L492.911 19.4231V25.3302H490.549V15.2882H492.911L495.274 20.7227L497.637 15.2882H500V25.3302ZM489.367 17.0603H487.004V25.3302H484.642V17.0603H482.279V15.2882H489.367V17.0603ZM476.372 54.275H469.283V31.5917L461.013 46.3595H456.288L449.199 31.5917V54.275H440.929V15.2882H449.199L458.65 36.3174L469.283 15.2882H476.372V54.275ZM430.296 54.275H422.026L419.664 47.4227H406.668L404.305 54.275H396.035L410.212 15.2882H416.119L430.296 54.275ZM418.482 40.9249L413.756 26.7479L409.031 40.9249H418.482ZM384.221 54.275H358.23V15.2882H384.221V22.0222H366.5V31.2373H381.858V37.9714H366.5V47.5409H384.221V54.275ZM346.416 22.0222H336.964V54.275H328.694V22.0222H318.062V15.2882H346.416V22.0222ZM308.61 42.8152C308.61 50.8488 301.522 54.5112 294.433 54.6294C287.345 54.6294 282.619 52.9754 280.256 49.4311L284.982 44.5873C287.345 46.7139 289.707 47.8953 294.433 47.8953C299.159 47.8953 301.522 46.2413 301.522 43.0515C301.522 40.0979 299.159 38.7984 296.796 38.3258L292.07 37.7351C284.982 36.79 281.438 33.1276 281.438 26.7479C281.438 23.2037 282.619 20.3682 284.982 18.1236C287.345 15.997 290.889 14.9337 294.433 14.9337C300.34 14.9337 303.885 16.4696 307.429 19.4231L302.703 24.2669C300.34 22.4948 297.977 21.5497 294.433 21.5497C290.889 21.786 288.526 23.0855 288.526 26.5116C288.526 29.2289 290.889 30.5284 293.252 30.7647L297.977 31.4736C303.885 32.1824 308.61 36.1993 308.61 42.8152ZM248.358 35.7267C248.358 46.3595 238.906 54.9838 228.274 54.9838C217.641 54.9838 209.371 46.3595 209.371 35.7267C209.371 25.2121 217.641 16.5877 228.274 16.5877C238.906 16.5877 248.358 25.2121 248.358 35.7267ZM228.274 0.0478516C209.371 0.0478516 192.831 15.8789 192.831 35.6085L170.384 67.625C169.203 67.5057 169.203 67.3887 168.021 67.3887C163.296 67.3887 158.57 68.8064 153.844 71.1692L52.9512 30.5284C50.2339 18.478 39.483 9.4992 26.7237 9.4992C12.0741 9.4992 0 21.5497 0 36.3174C0 50.967 12.0741 63.0175 26.7237 63.0175C31.805 63.0175 36.4113 61.7179 40.4293 59.2369L142.031 99.8777C144.394 112.283 155.027 120.553 168.023 120.553C181.018 120.553 192.832 109.92 194.014 96.806L228.275 71.76C248.359 71.76 264.899 55.6927 264.899 35.8448C264.898 16.1151 248.358 0.0478516 228.274 0.0478516ZM228.274 11.862C242.451 11.862 253.084 22.6129 253.084 35.8448C253.084 49.1949 242.451 59.9458 228.274 59.9458C215.278 59.9458 204.645 49.1949 204.645 35.8448C204.645 22.6129 215.278 11.862 228.274 11.862ZM26.7237 16.5877C34.2848 16.5877 40.9007 20.7227 44.2099 26.9842L34.4029 23.0855C26.4874 20.2501 17.7449 24.1488 14.5551 31.9462C11.4834 39.8617 15.0276 48.7223 22.7069 52.1484L30.9768 55.4564C29.6761 55.8108 28.2595 55.9289 26.7225 55.9289C15.8546 55.9289 7.11096 47.1865 7.11096 36.3174C7.11214 25.3302 15.8546 16.5877 26.7237 16.5877ZM168.021 74.4772C178.654 74.4772 186.924 83.3379 186.924 94.2069C186.924 105.194 178.654 113.464 168.021 113.464C159.751 113.464 153.844 109.92 150.3 103.422C153.844 105.194 156.207 106.376 159.751 107.557C168.021 111.101 176.291 106.376 179.836 98.8144C182.198 91.4908 179.836 81.4488 171.566 78.2589L163.296 74.951C164.477 74.7135 166.84 74.4772 168.021 74.4772Z" fill="black"/>
</mask>
<g mask="url(#mask0_140_9)">
<rect y="-135" width="496" height="389" fill="white"/>
</g>
</g>
<defs>
<clipPath id="clip0_140_9">
<rect width="500" height="120.6" fill="white"/>
</clipPath>
</defs>
</svg>
