<svg width="500" height="138" viewBox="0 0 500 138" fill="none" xmlns="http://www.w3.org/2000/svg">
<g clip-path="url(#clip0_140_2)">
<path fill-rule="evenodd" clip-rule="evenodd" d="M72.9741 57.5166C69.0463 57.5166 65.9454 60.904 65.9454 65.1209C65.9454 69.3379 69.1152 72.7252 72.9741 72.7252C76.9019 72.7252 80.0028 69.3379 80.0028 65.1209C80.0028 60.904 76.833 57.5166 72.9741 57.5166ZM47.8225 57.5166C43.8947 57.5166 40.7938 60.904 40.7938 65.1209C40.7938 69.3379 43.9636 72.7252 47.8225 72.7252C51.7503 72.7252 54.8512 69.3379 54.8512 65.1209C54.9201 60.904 51.7503 57.5166 47.8225 57.5166Z" fill="white"/>
<path fill-rule="evenodd" clip-rule="evenodd" d="M106.464 0H14.1262C6.33958 0 0 6.35998 0 14.1717V106.806C0 114.618 6.33958 120.978 14.1262 120.978H92.2685L88.6163 108.327L97.4366 116.484L105.775 124.158L120.659 137.085V14.1717C120.59 6.35998 114.25 0 106.464 0ZM75.317 83.9932C84.344 81.4353 87.7894 75.8358 87.7894 75.8358C84.9642 77.7023 82.2767 79.0158 79.8649 79.9145C76.4195 81.3662 73.1119 82.2649 69.8732 82.8871C63.258 84.1314 57.194 83.7858 52.0259 82.818C48.0981 82.0575 44.7216 81.0206 41.8964 79.8453C40.3115 79.2232 38.5888 78.4627 36.866 77.4949C36.6593 77.3567 36.4526 77.2875 36.2459 77.1493C36.108 77.0801 36.0391 77.011 35.9702 77.011C34.7299 76.3197 34.0408 75.8358 34.0408 75.8358C34.0408 75.8358 37.3484 81.2971 46.0998 83.924C44.0325 86.551 41.4829 89.5927 41.4829 89.5927C26.2541 89.1088 20.4658 79.1541 20.4658 79.1541C20.4658 57.1015 30.3886 39.1968 30.3886 39.1968C40.3115 31.7999 49.683 32.0073 49.683 32.0073L50.3721 32.8368C37.9686 36.3625 32.3181 41.8238 32.3181 41.8238C32.3181 41.8238 33.8341 40.9942 36.3837 39.8881C43.7569 36.639 49.6141 35.8094 52.0259 35.5329C52.4394 35.4638 52.7839 35.3947 53.1974 35.3947C57.4008 34.8416 62.1555 34.7033 67.1169 35.2564C73.6632 36.0168 80.6918 37.9525 87.8583 41.8238C87.8583 41.8238 82.4146 36.639 70.7001 33.1134L71.6648 32.0073C71.6648 32.0073 81.1053 31.7999 90.9592 39.1968C90.9592 39.1968 100.882 57.1015 100.882 79.1541C100.882 79.0849 95.0937 89.0397 79.8649 89.5236C79.8649 89.5236 77.3842 86.551 75.317 83.9932ZM183.917 29.5877H161.039V55.3733L176.268 69.1302V44.1051H184.399C189.567 44.1051 192.117 46.5937 192.117 50.6033V69.7523C192.117 73.7619 189.705 76.458 184.399 76.458H160.97V91.0444H183.848C196.114 91.1136 207.621 84.961 207.621 70.8584V50.2576C207.69 35.8786 196.182 29.5877 183.917 29.5877ZM303.818 70.8584V49.7046C303.818 42.1003 317.461 40.372 321.596 47.9763L334.206 42.8607C329.245 31.9381 320.218 28.7582 312.707 28.7582C300.441 28.7582 288.313 35.8786 288.313 49.7046V70.8584C288.313 84.8227 300.441 91.8049 312.431 91.8049C320.149 91.8049 329.383 88.0027 334.482 78.048L320.976 71.8263C317.668 80.3293 303.818 78.2554 303.818 70.8584ZM262.128 52.6081C257.373 51.5711 254.203 49.8429 253.997 46.8703C254.272 39.7499 265.229 39.4733 271.637 46.3172L281.767 38.5055C275.427 30.7629 268.261 28.689 260.888 28.689C249.655 28.689 238.768 35.049 238.768 47.0776C238.768 58.7606 247.726 65.0515 257.58 66.5724C262.61 67.2637 268.192 69.2684 268.054 72.7249C267.641 79.2923 254.135 78.9467 248.002 71.4806L238.217 80.6749C243.936 88.0718 251.723 91.8049 259.027 91.8049C270.259 91.8049 282.732 85.3066 283.214 73.4162C283.903 58.415 273.015 54.6128 262.128 52.6081ZM215.959 90.9753H231.395V29.5877H215.959V90.9753ZM476.227 29.5877H453.349V55.3733L468.578 69.1302V44.1051H476.709C481.877 44.1051 484.427 46.5937 484.427 50.6033V69.7523C484.427 73.7619 482.015 76.458 476.709 76.458H453.28V91.0444H476.227C488.492 91.1136 500 84.961 500 70.8584V50.2576C500 35.8786 488.492 29.5877 476.227 29.5877ZM363.975 28.7582C351.295 28.7582 338.685 35.6712 338.685 49.8429V70.7893C338.685 84.8227 351.364 91.874 364.112 91.874C376.792 91.874 389.402 84.8227 389.402 70.7893V49.8429C389.402 35.7403 376.654 28.7582 363.975 28.7582ZM373.897 70.7893C373.897 75.2136 368.936 77.4949 364.044 77.4949C359.082 77.4949 354.121 75.3519 354.121 70.7893V49.8429C354.121 45.3494 358.944 42.9298 363.768 42.9298C368.798 42.9298 373.897 45.0729 373.897 49.8429V70.7893ZM444.804 49.8429C444.46 35.4638 434.675 29.6568 422.064 29.6568H397.602V91.0444H413.244V71.5497H416.001L430.196 91.0444H449.49L432.814 69.9597C440.187 67.6093 444.804 61.1802 444.804 49.8429ZM422.34 58.1385H413.244V44.1051H422.34C432.056 44.1051 432.056 58.1385 422.34 58.1385Z" fill="white"/>
</g>
<defs>
<clipPath id="clip0_140_2">
<rect width="500" height="137.085" fill="white"/>
</clipPath>
</defs>
</svg>
