<svg width="709" height="425" viewBox="0 0 709 425" fill="none" xmlns="http://www.w3.org/2000/svg">
<mask id="mask0_115_6" style="mask-type:alpha" maskUnits="userSpaceOnUse" x="0" y="0" width="709" height="425">
<path d="M637.648 377.04V25.2344C637.648 11.3629 625.99 0 612.266 0H96.3628C82.6389 0 70.9809 11.2153 70.9809 25.2344V377.04H0C0 391.649 14.6094 404.783 27.8906 410.538C43.9757 417.326 70.9809 425 100.495 425H608.134C637.648 425 664.505 418.359 679.41 412.014C693.429 406.111 708.628 392.24 708.628 377.04H637.648ZM354.314 11.8056C357.561 11.8056 360.217 14.4618 360.217 17.7083C360.217 20.9549 357.561 23.6111 354.314 23.6111C351.068 23.6111 348.411 20.9549 348.411 17.7083C348.411 14.4618 351.068 11.8056 354.314 11.8056ZM97.5434 35.7118H611.085C612.708 35.7118 614.036 37.0399 614.036 38.6632V350.477C614.036 352.101 612.708 353.429 611.085 353.429H97.5434C95.9201 353.429 94.592 352.101 94.592 350.477V38.6632C94.592 36.8924 95.9201 35.7118 97.5434 35.7118ZM416.736 388.845H291.892C284.219 388.845 277.578 379.991 277.578 377.778H431.05C431.05 379.991 426.623 388.845 416.736 388.845Z" fill="black"/>
</mask>
<g mask="url(#mask0_115_6)">
<rect x="-62" y="-35" width="808.402" height="500" fill="url(#paint0_linear_115_6)"/>
</g>
<defs>
<linearGradient id="paint0_linear_115_6" x1="342.201" y1="-35" x2="342.201" y2="465" gradientUnits="userSpaceOnUse">
<stop stop-color="#FCD67A"/>
<stop offset="1" stop-color="#E5894B"/>
</linearGradient>
</defs>
</svg>
