<svg width="822" height="500" viewBox="0 0 822 500" fill="none" xmlns="http://www.w3.org/2000/svg">
<path d="M642.857 428.571V500H214.286V428.571C214.286 428.571 214.286 285.714 428.571 285.714C642.857 285.714 642.857 428.571 642.857 428.571ZM535.714 107.143C535.714 85.952 529.43 65.2371 517.657 47.6175C505.884 29.998 489.151 16.2652 469.573 8.15581C449.995 0.0464235 428.453 -2.07536 407.669 2.05877C386.885 6.1929 367.794 16.3973 352.81 31.3815C337.826 46.3657 327.621 65.4567 323.487 86.2404C319.353 107.024 321.475 128.567 329.584 148.145C337.694 167.722 351.426 184.456 369.046 196.229C386.666 208.002 407.381 214.286 428.571 214.286C456.987 214.286 484.24 202.998 504.333 182.904C524.426 162.811 535.714 135.559 535.714 107.143ZM650 287.857C669.522 305.868 685.262 327.587 696.299 351.747C707.337 375.907 713.451 402.023 714.286 428.571V500H821.429V428.571C821.429 428.571 821.429 305.357 650 287.857ZM607.143 4.0768e-05C596.352 0.00649838 585.629 1.69337 575.357 5.00004C596.252 34.9632 607.455 70.6137 607.455 107.143C607.455 143.672 596.252 179.323 575.357 209.286C585.629 212.592 596.352 214.279 607.143 214.286C635.559 214.286 662.811 202.998 682.904 182.904C702.997 162.811 714.286 135.559 714.286 107.143C714.286 78.7268 702.997 51.4746 682.904 31.3815C662.811 11.2883 635.559 4.0768e-05 607.143 4.0768e-05ZM226.429 140L267.857 190.357L98.2143 360L0 252.857L41.4286 211.429L98.2143 267.857L226.429 140Z" fill="url(#paint0_linear_115_2)"/>
<defs>
<linearGradient id="paint0_linear_115_2" x1="410.714" y1="0" x2="410.714" y2="500" gradientUnits="userSpaceOnUse">
<stop stop-color="#FCD67A"/>
<stop offset="1" stop-color="#E5894B"/>
</linearGradient>
</defs>
</svg>
