<svg width="250" height="187" viewBox="0 0 250 187" fill="none" xmlns="http://www.w3.org/2000/svg">
<mask id="mask0_124_25" style="mask-type:alpha" maskUnits="userSpaceOnUse" x="0" y="0" width="250" height="187">
<path d="M248.651 46.3775C248.439 45.0189 248.339 44.2836 248.339 44.2836L248.015 44.3584C242.606 19.0196 220.134 0 193.188 0C162.215 0 137.101 25.1144 137.101 56.0867C137.101 87.059 162.215 112.173 193.188 112.173C195.967 112.173 198.634 111.75 201.289 111.363C200.429 114.255 199.544 117.196 198.123 119.839C196.702 123.677 194.484 127.005 192.278 130.358C190.433 133.985 187.18 136.44 184.787 139.544C182.282 142.56 178.867 144.567 176.162 147.072C173.507 149.689 170.03 150.998 167.263 152.843C164.371 154.5 161.854 156.332 159.162 157.205C156.569 158.277 154.301 159.199 152.444 159.972C148.68 161.53 146.536 162.427 146.536 162.427L152.568 186.594C152.568 186.594 155.285 185.946 160.009 184.799C162.39 184.201 165.294 183.503 168.597 182.668C171.974 182.045 175.576 180.337 179.59 178.779C183.541 176.997 188.14 175.813 192.402 172.959C196.69 170.242 201.638 167.973 206 164.334C210.225 160.582 215.323 157.329 219.087 152.568C223.2 148.106 227.263 143.42 230.417 138.085C234.069 133 236.549 127.417 239.166 121.895C241.534 116.374 243.441 110.728 244.999 105.244C247.953 94.2506 249.274 83.806 249.785 74.8695C250.209 65.9206 249.96 58.4797 249.436 53.0954C249.249 50.5528 248.913 48.0725 248.651 46.3775ZM111.55 46.3775C111.338 45.0189 111.239 44.2836 111.239 44.2836L110.915 44.3584C105.505 19.0196 83.0333 0 56.0867 0C25.1144 0 0 25.1144 0 56.0867C0 87.059 25.1144 112.173 56.0867 112.173C58.8661 112.173 61.5334 111.75 64.1881 111.363C63.3281 114.255 62.4432 117.196 61.0223 119.839C59.6015 123.677 57.3829 127.005 55.1769 130.358C53.3322 133.985 50.0792 136.44 47.6862 139.544C45.181 142.56 41.7659 144.567 39.0613 147.072C36.4065 149.689 32.9291 150.998 30.1622 152.843C27.2706 154.5 24.7529 156.332 22.0608 157.205C19.4683 158.277 17.1999 159.199 15.3428 159.972C11.5913 161.505 9.44749 162.402 9.44749 162.402L15.4799 186.569C15.4799 186.569 18.197 185.921 22.9208 184.775C25.3013 184.176 28.2054 183.478 31.5083 182.643C34.8859 182.02 38.4879 180.313 42.5013 178.755C46.4523 176.972 51.0514 175.788 55.314 172.934C59.6015 170.217 64.5496 167.949 68.9119 164.309C73.1371 160.558 78.2347 157.305 81.9988 152.543C86.1118 148.081 90.175 143.395 93.3283 138.061C96.9802 132.975 99.4604 127.392 102.078 121.87C104.446 116.349 106.353 110.703 107.911 105.219C110.865 94.2257 112.186 83.7811 112.697 74.8446C113.121 65.8957 112.871 58.4548 112.348 53.0705C112.148 50.5528 111.812 48.0725 111.55 46.3775Z" fill="black"/>
</mask>
<g mask="url(#mask0_124_25)">
<rect x="-29" y="-51" width="308" height="287" fill="url(#paint0_linear_124_25)"/>
</g>
<defs>
<linearGradient id="paint0_linear_124_25" x1="125" y1="-51" x2="125" y2="236" gradientUnits="userSpaceOnUse">
<stop stop-color="#83F3FD"/>
<stop offset="1" stop-color="#F0AEDE"/>
</linearGradient>
</defs>
</svg>
