<svg width="250" height="187" viewBox="0 0 250 187" fill="none" xmlns="http://www.w3.org/2000/svg">
<mask id="mask0_124_26" style="mask-type:alpha" maskUnits="userSpaceOnUse" x="0" y="0" width="250" height="187">
<path d="M56.8221 74.4047C54.0428 74.4047 51.3757 74.8284 48.7211 75.2148C49.581 72.3233 50.4659 69.382 51.8867 66.7399C53.3075 62.9012 55.5259 59.5736 57.7319 56.221C59.5764 52.5942 62.8293 50.139 65.2222 47.0357C67.7273 44.0196 71.1422 42.0131 73.8467 39.508C76.5013 36.8907 79.9785 35.5821 82.7453 33.7376C85.6367 32.08 88.1543 30.2479 90.8463 29.3755C93.4386 28.3037 95.7069 27.3814 97.5639 26.6087C101.328 25.0508 103.471 24.1535 103.471 24.1535L97.4268 0C97.4268 0 94.7099 0.648075 89.9864 1.79468C87.6059 2.39291 84.702 3.09084 81.3993 3.92587C78.0218 4.54902 74.42 6.25647 70.4068 7.81436C66.4436 9.58412 61.8572 10.7806 57.5948 13.6222C53.3075 16.3391 48.3596 18.6074 43.9976 22.2466C39.7726 25.998 34.6752 29.2509 30.9113 34.0242C26.7985 38.486 22.7355 43.1721 19.5824 48.5064C15.9307 53.5913 13.4505 59.1748 10.8333 64.6959C8.46527 70.2171 6.55842 75.8628 5.00053 81.3466C2.04678 92.339 0.725692 102.783 0.214705 111.719C-0.20904 120.668 0.0402215 128.108 0.563671 133.492C0.750618 136.035 1.09959 138.502 1.34885 140.21C1.56072 141.568 1.66042 142.304 1.66042 142.304L1.98446 142.229C7.40591 167.554 29.8769 186.572 56.8221 186.572C87.7929 186.572 112.906 161.459 112.906 130.489C112.906 99.5178 87.7929 74.4047 56.8221 74.4047ZM193.916 74.4047C191.137 74.4047 188.47 74.8284 185.815 75.2148C186.675 72.3233 187.56 69.382 188.981 66.7399C190.401 62.9012 192.62 59.5736 194.826 56.221C196.67 52.5942 199.923 50.139 202.316 47.0357C204.821 44.0196 208.236 42.0131 210.941 39.508C213.595 36.8907 217.073 35.5821 219.839 33.7376C222.731 32.08 225.248 30.2479 227.94 29.3755C230.533 28.3037 232.801 27.3814 234.658 26.6087C238.422 25.0508 240.565 24.1535 240.565 24.1535L234.521 0C234.521 0 231.804 0.648075 227.08 1.79468C224.7 2.39291 221.796 3.09084 218.493 3.92587C215.116 4.54902 211.514 6.25647 207.501 7.81436C203.55 9.59658 198.951 10.7806 194.689 13.6346C190.402 16.3516 185.454 18.6199 181.092 22.2591C176.867 26.0105 171.769 29.2633 168.005 34.0242C163.892 38.486 159.83 43.1721 156.676 48.5064C153.025 53.5913 150.545 59.1748 147.927 64.6959C145.559 70.2171 143.652 75.8628 142.095 81.3466C139.141 92.339 137.82 102.783 137.309 111.719C136.885 120.668 137.134 128.108 137.658 133.492C137.845 136.035 138.194 138.502 138.443 140.21C138.655 141.568 138.754 142.304 138.754 142.304L139.078 142.229C144.5 167.554 166.971 186.572 193.916 186.572C224.887 186.572 250 161.459 250 130.489C250 99.5178 224.887 74.4047 193.916 74.4047Z" fill="black"/>
</mask>
<g mask="url(#mask0_124_26)">
<rect x="-29" y="-51" width="308" height="287" fill="url(#paint0_linear_124_26)"/>
</g>
<defs>
<linearGradient id="paint0_linear_124_26" x1="125" y1="-51" x2="125" y2="236" gradientUnits="userSpaceOnUse">
<stop stop-color="#83F3FD"/>
<stop offset="1" stop-color="#F0AEDE"/>
</linearGradient>
</defs>
</svg>
