<svg width="500" height="500" viewBox="0 0 500 500" fill="none" xmlns="http://www.w3.org/2000/svg">
<path fill-rule="evenodd" clip-rule="evenodd" d="M315.234 111.133C336.328 111.133 359.082 119.434 372.559 133.105C389.258 129.883 404.98 124.121 419.141 116.113C413.672 132.52 402.051 146.191 386.816 154.883C401.66 153.125 415.82 149.414 429.004 143.848C419.141 157.91 406.738 170.312 392.383 180.176C392.48 183.203 392.578 186.23 392.578 189.258C392.578 282.031 320.02 388.965 184.961 388.965C140.137 388.965 103.516 377.246 70.9961 357.324C76.7578 358.008 82.6172 358.301 88.4766 358.301C122.949 358.301 154.59 347.07 179.785 328.223C147.656 327.637 120.508 307.324 111.133 279.492C115.625 280.273 120.215 280.762 125 280.762C131.641 280.762 138.184 279.883 144.336 278.32C110.742 271.875 86.6211 243.359 86.6211 209.375C86.6211 209.082 86.6211 208.789 86.6211 208.496C96.4844 213.77 107.813 216.895 119.922 217.285C100.195 204.688 87.2071 183.203 87.2071 158.887C87.2071 145.996 90.8203 133.984 97.168 123.633C133.398 166.016 186.328 194.141 247.363 197.07C246.094 191.992 245.41 186.523 245.41 181.055C245.41 142.285 274.609 111.133 315.234 111.133ZM315.234 94.7266C267.676 94.7266 230.273 131.543 229.199 178.906C182.422 172.168 140.43 149.219 109.473 112.988C106.348 109.375 101.855 107.324 97.0703 107.324C96.6797 107.324 96.1914 107.324 95.8008 107.422C90.625 107.813 85.9375 110.742 83.2031 115.137C75.0977 128.32 70.8008 143.457 70.8008 158.984C70.8008 171.387 73.5352 183.398 78.6133 194.336C78.418 194.434 78.3203 194.531 78.125 194.629C73.2422 197.559 70.2149 202.93 70.2149 208.594V209.473C70.2149 233.594 80.2735 255.762 96.875 271.582C94.6289 275.586 94.1407 280.371 95.6055 284.766C102.637 305.859 117.578 322.949 136.719 333.398C121.484 339.062 105.273 341.992 88.4766 341.992C83.1055 341.992 77.8321 341.699 72.9492 341.113C72.2656 341.016 71.6797 341.016 70.9961 341.016C64.1602 341.016 57.9102 345.41 55.6641 352.051C53.125 359.277 56.0547 367.383 62.5977 371.387C99.9024 394.238 139.941 405.371 185.059 405.371C325.195 405.371 408.984 295.508 408.984 189.355C408.984 189.062 408.984 188.77 408.984 188.477C421.68 178.613 432.813 167.09 442.09 153.906C444.238 151.172 445.41 147.754 445.41 143.945C445.41 135.937 439.746 129.297 432.129 127.93C433.008 125.781 433.887 123.633 434.57 121.484C436.719 115.039 434.668 108.008 429.492 103.711C426.465 101.27 422.852 100 419.141 100C416.406 100 413.672 100.684 411.133 102.148C400.586 108.105 389.16 112.695 377.148 115.625C360.84 102.539 337.891 94.7266 315.234 94.7266Z" fill="white"/>
</svg>
